<svg width="116" height="83" viewBox="0 0 116 83" fill="none" xmlns="http://www.w3.org/2000/svg">
<path d="M75.151 8.93254C75.6889 8.68042 76.311 8.68042 76.8488 8.93254L79.3929 10.1251C79.7671 10.3005 80.1863 10.3557 80.5931 10.2831L83.3592 9.78965C83.944 9.68532 84.5449 9.84633 84.9991 10.2291L87.1479 12.0395C87.4639 12.3057 87.8546 12.4676 88.2663 12.5027L91.0658 12.742C91.6577 12.7925 92.1964 13.1036 92.5361 13.5909L94.1431 15.8957C94.3794 16.2347 94.7149 16.4921 95.1035 16.6327L97.7457 17.5883C98.3043 17.7903 98.7442 18.2302 98.9462 18.7888L99.9019 21.4311C100.042 21.8196 100.3 22.1551 100.639 22.3915L102.944 23.9984C103.431 24.3381 103.742 24.8769 103.793 25.4687L104.032 28.2683C104.067 28.68 104.229 29.0707 104.495 29.3867L106.305 31.5354C106.688 31.9897 106.849 32.5906 106.745 33.1754L106.251 35.9414C106.179 36.3482 106.234 36.7675 106.409 37.1416L107.602 39.6857C107.854 40.2236 107.854 40.8457 107.602 41.3835L106.409 43.9276C106.234 44.3017 106.179 44.721 106.251 45.1278L106.745 47.8939C106.849 48.4786 106.688 49.0795 106.305 49.5338L104.495 51.6825C104.229 51.9985 104.067 52.3892 104.032 52.8009L103.793 55.6005C103.742 56.1923 103.431 56.7311 102.944 57.0708L100.639 58.6778C100.3 58.9141 100.042 59.2496 99.9019 59.6381L98.9462 62.2804C98.7442 62.839 98.3043 63.2789 97.7457 63.4809L95.1035 64.4366C94.7149 64.5771 94.3794 64.8345 94.1431 65.1735L92.5361 67.4783C92.1964 67.9656 91.6577 68.2767 91.0658 68.3272L88.2663 68.5665C87.8546 68.6017 87.4639 68.7635 87.1479 69.0297L84.9991 70.8401C84.5449 71.2229 83.944 71.3839 83.3592 71.2796L80.5931 70.7861C80.1863 70.7135 79.7671 70.7687 79.3929 70.9441L76.8488 72.1367C76.311 72.3888 75.6889 72.3888 75.151 72.1367L72.6069 70.9441C72.2328 70.7687 71.8135 70.7135 71.4068 70.7861L68.6407 71.2796C68.0559 71.3839 67.455 71.2229 67.0008 70.8401L64.852 69.0297C64.536 68.7635 64.1453 68.6017 63.7336 68.5665L60.9341 68.3272C60.3422 68.2767 59.8035 67.9656 59.4637 67.4783L57.8568 65.1735C57.6205 64.8345 57.285 64.5771 56.8964 64.4366L54.2542 63.4809C53.6956 63.2789 53.2557 62.839 53.0536 62.2804L52.098 59.6381C51.9575 59.2496 51.7 58.9141 51.3611 58.6778L49.0562 57.0708C48.5689 56.7311 48.2579 56.1923 48.2073 55.6005L47.9681 52.8009C47.9329 52.3892 47.7711 51.9985 47.5048 51.6825L45.6944 49.5338C45.3117 49.0795 45.1506 48.4786 45.255 47.8939L45.7485 45.1278C45.8211 44.721 45.7659 44.3017 45.5905 43.9276L44.3979 41.3835C44.1457 40.8457 44.1457 40.2236 44.3979 39.6857L45.5905 37.1416C45.7659 36.7675 45.8211 36.3482 45.7485 35.9414L45.255 33.1754C45.1506 32.5906 45.3117 31.9897 45.6944 31.5354L47.5048 29.3867C47.7711 29.0707 47.9329 28.68 47.9681 28.2683L48.2073 25.4687C48.2579 24.8769 48.5689 24.3381 49.0562 23.9984L51.3611 22.3915C51.7 22.1551 51.9575 21.8196 52.098 21.4311L53.0536 18.7888C53.2557 18.2302 53.6956 17.7903 54.2542 17.5883L56.8964 16.6327C57.285 16.4921 57.6205 16.2347 57.8568 15.8957L59.4637 13.5909C59.8035 13.1036 60.3422 12.7925 60.9341 12.742L63.7336 12.5027C64.1453 12.4676 64.536 12.3057 64.852 12.0395L67.0008 10.2291C67.455 9.84633 68.0559 9.68532 68.6407 9.78965L71.4068 10.2831C71.8135 10.3557 72.2328 10.3005 72.6069 10.1251L75.151 8.93254Z" fill="#999999"/>
<path d="M112.104 42.1912C113.162 42.3829 113.884 43.3784 113.694 44.4369C112.474 51.2352 109.986 57.3854 105.942 63.0874C101.911 68.772 96.6957 73.5041 90.6641 76.9626C89.7059 77.512 88.4961 77.1264 87.9871 76.1461L83.9568 68.3851C83.4478 67.4048 83.8331 66.2024 84.783 65.6385C89.019 63.1241 92.6878 59.7456 95.5458 55.7151C98.3891 51.7055 100.358 47.152 101.335 42.3501C101.561 41.239 102.616 40.4725 103.732 40.6746L112.104 42.1912Z" fill="#222222"/>
<path d="M81.0146 36.8322C81.3073 36.0517 82.0535 35.5346 82.8871 35.5346H113.441C114.741 35.5346 115.696 36.7561 115.381 38.018L113.389 46.018C113.167 46.9091 112.367 47.5346 111.448 47.5346H79.8862C78.4897 47.5346 77.5231 46.1397 78.0136 44.8322L81.0146 36.8322Z" fill="#222222"/>
<path d="M68.7521 48.8439C69.8405 49.0324 70.5763 50.0695 70.3203 51.1439C68.9322 56.9694 65.9331 62.303 61.6476 66.5242C57.3621 70.7454 51.9839 73.6636 46.1381 74.9635C45.0598 75.2032 44.034 74.4518 43.862 73.3607L42.6225 65.4951C42.4505 64.404 43.1994 63.39 44.268 63.1102C47.6469 62.2253 50.748 60.469 53.2529 58.0017C55.7578 55.5343 57.5609 52.4601 58.4967 49.0949C58.7926 48.0307 59.8178 47.2972 60.9062 47.4856L68.7521 48.8439Z" fill="#222222"/>
<path d="M70.0586 6.84484C70.2565 6.11966 70.8443 5.56668 71.5802 5.41339L79.8386 3.69311C81.2925 3.39026 82.5577 4.72166 82.1811 6.15822L70.0273 52.5229C69.7394 53.621 68.5964 54.2596 67.5103 53.9291L59.8585 51.6002C58.8234 51.2852 58.2265 50.2042 58.5114 49.1604L70.0586 6.84484Z" fill="#222222"/>
<path d="M43.4871 20.7654C43.7977 20.0201 44.5259 19.5346 45.3333 19.5346H105C106.427 19.5346 107.395 20.9865 106.846 22.3038L103.513 30.3038C103.202 31.0491 102.474 31.5346 101.667 31.5346H41.9999C40.5728 31.5346 39.6049 30.0828 40.1538 28.7654L43.4871 20.7654Z" fill="#222222"/>
</svg>
